<?xml version="1.0" encoding="UTF-8"?><svg id="Layer_2" xmlns="http://www.w3.org/2000/svg" viewBox="0 0 70 70"><defs><style>.cls-1{fill:#fff;}.cls-2{fill:#231f20;}</style></defs><g id="Layer_1-2"><g><path class="cls-1" d="M0,63.98V6.02c.04-.13,.1-.25,.13-.38C.48,4,1.32,2.67,2.6,1.59c1-.84,2.18-1.27,3.42-1.59C25.34,0,44.66,0,63.99,0c.1,.04,.21,.1,.31,.12,3.39,.72,5.7,3.52,5.7,6.95,0,18.63,0,37.27,0,55.9,0,3.9-3.13,7.01-7.03,7.03-2.76,0-5.51,0-8.27,0-15.85,0-31.71,0-47.56,0-2.27,0-4.09-.89-5.55-2.6-.85-1-1.27-2.18-1.59-3.42Z"/><g><path class="cls-2" d="M48.25,69.85s-.08,0-.13,0c-2.2,0-2.7-.53-2.71-2.71,0-3.29,0-6.58,0-9.87,0-2.56-.29-5.02-2.29-6.96,.15-.06,.22-.1,.31-.12,.16-.03,.32-.04,.47-.07,2.34-.3,4.62-.78,6.77-1.79,3.19-1.49,5.63-3.68,6.92-7.02,.74-1.93,1.17-3.92,1.36-5.97,.41-4.26-.3-8.18-3.22-11.5-.13-.15-.2-.46-.14-.65,.84-2.44,.76-4.88,.05-7.33-.54-1.85-.82-2.06-2.73-1.57-2.5,.63-4.75,1.84-6.92,3.19-.3,.19-.78,.27-1.13,.18-5.42-1.34-10.84-1.36-16.25,0-.49,.12-.84,.05-1.28-.19-1.68-.9-3.37-1.81-5.11-2.58-.92-.41-1.96-.57-2.96-.76-.38-.07-.9-.18-1.11,.37-1.03,2.76-1.4,5.57-.41,8.42,.16,.45,.09,.73-.22,1.09-1.36,1.55-2.31,3.34-2.77,5.35-.81,3.58-.48,7.12,.57,10.6,.98,3.27,2.84,5.89,5.87,7.59,1.8,1.01,3.69,1.77,5.73,2.14,1.08,.2,2.17,.37,3.36,.57-1.26,1.24-1.88,2.68-2.15,4.29-.03,.18-.21,.42-.38,.49-1.64,.74-3.39,1-5.15,.72-1.99-.31-3.41-1.57-4.43-3.26-.88-1.46-1.98-2.67-3.52-3.44-1-.51-2.04-.81-3.16-.54-.64,.16-.75,.4-.35,.9,.35,.44,.8,.8,1.22,1.17,.54,.48,1.24,.85,1.62,1.43,.84,1.26,1.51,2.64,2.29,3.94,.45,.75,.91,1.54,1.52,2.15,1.51,1.51,3.51,1.88,5.54,1.95,1.51,.05,3.03-.07,4.59-.11,0,.08,.03,.24,.03,.39,.02,2.37,.05,4.75,.06,7.12,0,1.55-.73,2.3-2.27,2.32,.01,.05,.02,.1,.02,.16h22.47s-.01-.1-.01-.14ZM14.56,50.23c-.22-.11-.39-.31-.58-.47,.14-.09,.3-.27,.4-.25,.21,.05,.4,.22,.72,.43-.28,.16-.47,.33-.54,.29Zm1.49,1.53c-.22-.23-.47-.43-.65-.69-.04-.06,.16-.29,.34-.59,.29,.36,.52,.58,.66,.85,.03,.07-.23,.28-.36,.43Zm1.37,2.29c-.31-.52-.53-.83-.67-1.18-.03-.06,.41-.4,.43-.38,.26,.24,.54,.5,.71,.81,.05,.1-.21,.36-.46,.76Zm1.89,1.69c-.34-.2-.64-.49-.95-.75,.17-.18,.42-.55,.49-.52,.36,.16,.66,.43,1.14,.76-.34,.26-.61,.55-.68,.51Zm2.33,1.34c-.37-.03-.9-.06-.88-.62,0-.2,.34-.37,.64-.68,.34,.35,.59,.6,.83,.84-.2,.16-.41,.47-.59,.46Zm2.66,.71c-.32-.36-.52-.58-.71-.8,.27-.18,.53-.46,.82-.49,.2-.02,.44,.29,.67,.46-.21,.23-.43,.46-.78,.83Zm3.43-1.17c-.06,.28-.48,.48-.86,.82-.25-.32-.58-.63-.54-.69,.18-.25,.43-.53,.72-.62,.34-.11,.78,.09,.69,.49Z"/><path class="cls-1" d="M19.99,55.22c-.34,.26-.61,.55-.68,.51-.34-.2-.64-.49-.95-.75,.17-.18,.42-.55,.49-.52,.36,.16,.66,.43,1.14,.76Z"/><path class="cls-1" d="M24.3,57.78c-.32-.36-.52-.58-.71-.8,.27-.18,.53-.46,.82-.49,.2-.02,.44,.29,.67,.46-.21,.23-.43,.46-.78,.83Z"/><path class="cls-1" d="M26.86,57.43c-.25-.32-.58-.63-.54-.69,.18-.25,.43-.53,.72-.62,.34-.11,.78,.09,.69,.49-.06,.28-.48,.48-.86,.82Z"/><path class="cls-1" d="M21.4,55.77c.34,.35,.59,.6,.83,.84-.2,.16-.41,.47-.59,.46-.37-.03-.9-.06-.88-.62,0-.2,.34-.37,.64-.68Z"/><path class="cls-1" d="M17.42,54.04c-.31-.52-.53-.83-.67-1.18-.03-.06,.41-.4,.43-.38,.26,.24,.54,.5,.71,.81,.05,.1-.21,.36-.46,.76Z"/><path class="cls-1" d="M15.75,50.47c.29,.36,.52,.58,.66,.85,.03,.07-.23,.28-.36,.43-.22-.23-.47-.43-.65-.69-.04-.06,.16-.29,.34-.59Z"/><path class="cls-1" d="M15.11,49.93c-.28,.16-.47,.33-.54,.29-.22-.11-.39-.31-.58-.47,.14-.09,.3-.27,.4-.25,.21,.05,.4,.22,.72,.43Z"/></g></g></g></svg>