<?xml version="1.0" encoding="UTF-8"?><svg id="Layer_2" xmlns="http://www.w3.org/2000/svg" viewBox="0 0 70 70"><defs><style>.cls-1{fill:#fff;}.cls-2{fill:#231f20;}</style></defs><g id="Layer_1-2"><g><path class="cls-1" d="M0,63.98V6.02c.04-.13,.1-.25,.13-.38C.48,4,1.32,2.67,2.6,1.59c1-.84,2.18-1.27,3.42-1.59C25.34,0,44.66,0,63.99,0c.1,.04,.21,.1,.31,.12,3.39,.72,5.7,3.52,5.7,6.95,0,18.63,0,37.27,0,55.9,0,3.9-3.13,7.01-7.03,7.03-2.76,0-5.51,0-8.27,0-15.85,0-31.71,0-47.56,0-2.27,0-4.09-.89-5.55-2.6-.85-1-1.27-2.18-1.59-3.42Zm38.48-4.53v-.96c0-5.44,0-10.89,0-16.33,0-.57,.03-1.14,.08-1.7,.17-2.08,1.67-3.86,3.79-4.53,1.88-.59,4.04,.09,5.36,1.65,.97,1.14,1.33,2.45,1.32,3.91,0,5.72,0,11.44,0,17.15v.81h10.46c0-.28,0-.52,0-.76,0-6.26,0-12.53,0-18.79,0-4.32-1.77-7.74-5.22-10.29-4.63-3.42-10.57-2.93-14.59,1.18-.38,.39-.73,.82-1.22,1.39v-4.11h-10.4v31.39h10.42ZM10.56,28.05v31.39h10.37V28.05H10.56Zm5.16-6.03c3.48,.01,6.31-2.79,6.29-6.27-.02-3.48-2.65-6.29-6.28-6.27-3.65,.02-6.23,2.76-6.26,6.29-.03,3.46,2.82,6.24,6.25,6.25Z"/><path class="cls-2" d="M38.48,59.45h-10.42V28.06h10.4v4.11c.49-.56,.84-1,1.22-1.39,4.01-4.11,9.96-4.6,14.59-1.18,3.45,2.55,5.22,5.97,5.22,10.29,0,6.26,0,12.53,0,18.79,0,.24,0,.49,0,.76h-10.46v-.81c0-5.72,0-11.44,0-17.15,0-1.46-.36-2.77-1.32-3.91-1.32-1.55-3.47-2.24-5.36-1.65-2.12,.66-3.62,2.45-3.79,4.53-.05,.57-.08,1.14-.08,1.7,0,5.44,0,10.89,0,16.33v.96Z"/><path class="cls-2" d="M10.56,28.05h10.37v31.39H10.56V28.05Z"/><path class="cls-2" d="M15.72,22.02c-3.43-.01-6.28-2.79-6.25-6.25,.03-3.53,2.61-6.27,6.26-6.29,3.63-.02,6.26,2.79,6.28,6.27,.02,3.48-2.82,6.28-6.29,6.27Z"/></g></g></svg>